<?xml version="1.0" standalone="no"?>
<!DOCTYPE svg PUBLIC "-//W3C//DTD SVG 20010904//EN"
 "http://www.w3.org/TR/2001/REC-SVG-20010904/DTD/svg10.dtd">
<svg version="1.0" xmlns="http://www.w3.org/2000/svg"
 width="558.000000pt" height="558.000000pt" viewBox="0 0 558.000000 558.000000"
 preserveAspectRatio="xMidYMid meet">
<metadata>
Created by potrace 1.11, written by Peter Selinger 2001-2013
</metadata>
<g transform="translate(0.000000,558.000000) scale(0.100000,-0.100000)"
fill="#000000" stroke="none">
<path d="M2066 3397 c3 -10 9 -15 12 -12 3 3 0 11 -7 18 -10 9 -11 8 -5 -6z"/>
<path d="M2065 3349 c3 -13 10 -27 16 -33 9 -8 9 -6 1 10 -6 12 -9 24 -6 27 3
3 1 8 -5 11 -6 4 -8 -2 -6 -15z"/>
<path d="M1971 3175 c-49 -127 -75 -233 -60 -251 34 -42 45 -36 74 39 38 98
70 161 116 229 22 32 39 60 39 63 0 3 -31 5 -68 5 l-68 0 -33 -85z"/>
<path d="M2330 3130 c0 -33 4 -60 10 -60 6 0 10 27 10 60 0 33 -4 60 -10 60
-6 0 -10 -27 -10 -60z"/>
<path d="M2420 3130 c0 -33 4 -60 10 -60 6 0 10 27 10 60 0 33 -4 60 -10 60
-6 0 -10 -27 -10 -60z"/>
<path d="M2500 3130 c0 -33 3 -60 8 -60 4 0 7 27 7 60 0 33 -3 60 -7 60 -5 0
-8 -27 -8 -60z"/>
<path d="M2555 3130 c0 -33 4 -60 10 -60 6 0 9 17 8 37 -1 21 -2 48 -2 61 -1
12 -4 22 -8 22 -5 0 -8 -27 -8 -60z"/>
<path d="M2656 2897 c3 -10 9 -15 12 -12 3 3 0 11 -7 18 -10 9 -11 8 -5 -6z"/>
<path d="M3575 2899 c-4 -6 -5 -12 -2 -15 2 -3 7 2 10 11 7 17 1 20 -8 4z"/>
<path d="M1945 2840 c10 -11 20 -20 23 -20 3 0 -3 9 -13 20 -10 11 -20 20 -23
20 -3 0 3 -9 13 -20z"/>
<path d="M3130 2850 c0 -5 5 -10 11 -10 5 0 7 5 4 10 -3 6 -8 10 -11 10 -2 0
-4 -4 -4 -10z"/>
<path d="M2926 2842 c-3 -5 1 -9 9 -9 8 0 12 4 9 9 -3 4 -7 8 -9 8 -2 0 -6 -4
-9 -8z"/>
<path d="M1879 2783 c-5 -187 12 -288 67 -399 38 -77 67 -114 89 -114 10 0 2
22 -25 73 -22 40 -46 92 -54 115 -24 66 -36 198 -28 288 6 61 5 81 -4 77 -7
-2 -15 0 -19 6 -15 25 -25 7 -26 -46z"/>
<path d="M3250 2826 c0 -2 7 -7 16 -10 8 -3 12 -2 9 4 -6 10 -25 14 -25 6z"/>
<path d="M2703 2805 c0 -8 4 -12 9 -9 5 3 6 10 3 15 -9 13 -12 11 -12 -6z"/>
<path d="M2020 2749 c0 -5 5 -7 10 -4 6 3 10 8 10 11 0 2 -4 4 -10 4 -5 0 -10
-5 -10 -11z"/>
<path d="M2085 2699 c-4 -6 -5 -12 -2 -15 2 -3 7 2 10 11 7 17 1 20 -8 4z"/>
<path d="M2295 2680 c8 -13 1581 -14 1590 0 4 7 -255 10 -795 10 -512 0 -799
-3 -795 -10z"/>
<path d="M2111 2646 c-8 -10 -9 -16 -1 -21 5 -3 10 1 10 10 0 10 5 13 12 9 7
-4 8 -3 4 4 -9 15 -11 15 -25 -2z"/>
<path d="M2653 2605 c-41 -29 -31 -68 27 -109 50 -36 61 -61 38 -84 -7 -7 -9
-12 -6 -12 15 0 38 33 38 56 0 17 -14 34 -50 60 -52 37 -67 75 -34 88 25 9 33
7 54 -14 l20 -20 0 20 c0 11 -6 20 -12 20 -7 0 -22 3 -33 6 -11 2 -30 -2 -42
-11z"/>
<path d="M2305 2602 c6 -4 10 -47 10 -97 0 -49 -4 -93 -10 -97 -5 -4 6 -7 25
-7 19 0 29 3 23 6 -9 3 -13 33 -13 98 0 65 4 95 13 98 6 3 -4 6 -23 6 -19 0
-30 -3 -25 -7z"/>
<path d="M2398 2601 c10 -6 13 -33 10 -105 -3 -91 -2 -96 17 -95 11 0 14 3 8
6 -14 5 -19 163 -5 162 4 0 36 -38 72 -84 35 -46 65 -83 66 -82 2 1 4 45 5 97
1 57 6 98 13 102 7 5 3 8 -9 8 -19 0 -20 -5 -17 -82 l4 -82 -64 82 c-49 63
-69 81 -88 81 -17 1 -21 -2 -12 -8z"/>
<path d="M2770 2583 c1 -26 1 -27 12 -8 6 11 16 23 22 27 6 5 1 8 -11 8 -18 0
-23 -6 -23 -27z"/>
<path d="M2833 2603 c15 -4 17 -17 17 -98 0 -65 -4 -95 -12 -98 -7 -3 5 -5 27
-5 22 0 34 2 28 5 -9 3 -13 33 -13 99 l0 94 34 0 c28 0 35 -4 39 -22 4 -20 4
-19 6 5 l1 27 -72 -1 c-40 -1 -65 -3 -55 -6z"/>
<path d="M2998 2603 c8 -3 12 -33 12 -98 0 -65 -4 -95 -12 -98 -7 -3 1 -6 17
-6 l30 -1 0 105 0 105 -30 -1 c-16 0 -24 -3 -17 -6z"/>
<path d="M3081 2583 c0 -27 1 -27 9 -5 7 16 18 22 40 22 l30 0 0 -94 c0 -66
-4 -96 -12 -99 -7 -3 1 -6 17 -6 l30 -1 -3 96 c-3 72 0 99 10 105 8 5 -14 9
-54 9 -68 0 -68 0 -67 -27z"/>
<path d="M3237 2603 c13 -2 24 -13 26 -26 4 -18 5 -17 6 6 1 23 -3 27 -26 26
-23 -1 -24 -2 -6 -6z"/>
<path d="M3298 2603 c8 -3 12 -27 12 -67 0 -81 14 -120 48 -136 l27 -12 -22
24 c-20 21 -23 35 -23 105 0 56 4 83 13 86 6 3 -6 5 -28 5 -22 0 -34 -2 -27
-5z"/>
<path d="M3438 2603 c8 -3 12 -31 13 -86 1 -96 6 -92 17 16 l8 77 -25 -1 c-14
0 -20 -3 -13 -6z"/>
<path d="M3507 2588 c-4 -12 -4 -24 -1 -27 3 -3 7 5 11 17 4 16 13 22 35 22
l29 0 -3 -100 -3 -100 30 1 c17 0 24 3 18 6 -9 3 -13 33 -13 99 l0 94 35 0
c27 0 35 -4 35 -17 0 -15 2 -16 9 -3 17 25 2 30 -88 30 -83 0 -89 -1 -94 -22z"/>
<path d="M3728 2603 c8 -3 12 -33 12 -98 0 -65 -4 -95 -12 -98 -7 -3 24 -6 70
-6 l82 -1 -1 28 c-2 23 -2 24 -6 5 -4 -20 -11 -23 -54 -23 l-49 0 0 95 0 95
44 0 c34 0 46 -4 49 -17 4 -14 5 -12 6 5 1 21 -2 22 -76 21 -43 0 -72 -3 -65
-6z"/>
<path d="M3820 2535 c0 -8 -6 -15 -12 -15 -9 0 -10 -2 -2 -8 7 -4 14 -16 17
-27 2 -11 5 -1 6 23 0 23 -1 42 -4 42 -3 0 -5 -7 -5 -15z"/>
<path d="M2631 2428 c-1 -22 3 -28 21 -28 19 0 20 2 6 13 -9 6 -18 19 -21 27
-3 8 -6 3 -6 -12z"/>
<path d="M3429 2413 c-13 -16 -12 -17 4 -4 16 13 21 21 13 21 -2 0 -10 -8 -17
-17z"/>
<path d="M2310 2317 c0 -8 -3 -29 -6 -46 -4 -20 -3 -31 5 -31 6 0 11 6 11 14
0 7 9 16 21 19 29 8 22 51 -8 55 -15 2 -23 -2 -23 -11z m32 -29 c-15 -15 -26
-4 -18 18 5 13 9 15 18 6 9 -9 9 -15 0 -24z"/>
<path d="M2744 2305 c-1 -14 -5 -36 -8 -50 -5 -18 -3 -23 8 -19 8 3 12 13 9
25 -4 15 0 19 17 19 17 0 21 -4 17 -20 -3 -13 0 -20 9 -20 8 0 14 10 14 26 0
14 5 34 10 45 8 15 7 19 -5 19 -8 0 -15 -9 -15 -20 0 -14 -7 -20 -21 -20 -16
0 -20 5 -16 20 3 11 0 20 -6 20 -7 0 -13 -11 -13 -25z"/>
<path d="M2960 2318 c0 -7 -3 -31 -7 -53 -3 -22 -2 -37 2 -33 5 5 9 19 11 33
1 14 5 34 9 45 4 11 2 20 -4 20 -6 0 -11 -6 -11 -12z"/>
<path d="M3040 2316 c0 -7 -2 -29 -5 -47 -5 -31 -4 -32 6 -11 15 27 33 29 26
2 -3 -11 -1 -23 4 -26 5 -3 9 6 9 20 0 35 -3 41 -18 40 -8 -1 -11 5 -7 17 4
11 2 19 -4 19 -6 0 -11 -6 -11 -14z"/>
<path d="M3137 2288 c-3 -24 -2 -47 4 -52 5 -6 9 5 9 30 0 22 5 45 12 52 9 9
9 12 -4 12 -11 0 -17 -13 -21 -42z"/>
<path d="M3281 2303 c5 -15 8 -37 4 -50 -4 -17 -2 -21 10 -17 8 3 13 10 10 14
-3 4 6 24 20 44 17 25 20 36 11 36 -8 0 -16 -10 -20 -22 -5 -19 -8 -20 -15 -8
-5 8 -7 18 -5 22 3 4 -2 8 -10 8 -13 0 -14 -5 -5 -27z"/>
<path d="M3554 2308 c0 -13 -2 -32 -5 -44 -2 -11 0 -23 6 -25 5 -2 10 5 10 16
0 13 8 21 23 23 20 3 22 1 16 -25 -4 -15 -3 -24 2 -20 4 4 13 28 20 52 9 37 8
45 -3 45 -7 0 -13 -9 -13 -20 0 -14 -7 -20 -21 -20 -16 0 -20 5 -16 20 3 11 0
20 -6 20 -7 0 -12 -10 -13 -22z"/>
<path d="M3820 2316 c0 -8 -9 -17 -19 -21 -20 -6 -36 -38 -27 -53 10 -17 49
-6 51 14 1 10 6 31 10 47 5 17 3 27 -4 27 -6 0 -11 -6 -11 -14z m-13 -51 c-4
-8 -11 -15 -17 -15 -7 0 -7 6 0 21 13 23 26 19 17 -6z"/>
<path d="M2449 2307 c-13 -42 -1 -94 16 -67 3 5 2 10 -4 10 -12 0 -3 32 12 41
5 3 2 9 -7 12 -9 4 -16 5 -17 4z"/>
<path d="M2496 2303 c-10 -10 -7 -61 3 -68 5 -3 12 -1 16 5 3 5 1 10 -4 10
-16 0 -13 16 4 33 12 13 12 16 1 20 -8 3 -17 3 -20 0z"/>
<path d="M2996 2298 c-13 -40 -13 -57 0 -62 7 -3 16 -1 19 4 3 4 -1 10 -7 13
-10 3 -10 9 -1 25 8 13 9 23 3 27 -6 4 -12 0 -14 -7z"/>
<path d="M2376 2275 c-8 -33 -2 -42 25 -40 17 1 23 9 25 33 5 38 -3 41 -16 7
-5 -14 -13 -25 -18 -25 -5 0 -7 11 -4 25 6 33 -4 32 -12 0z"/>
<path d="M2541 2263 c1 -34 2 -35 9 -13 11 36 11 50 0 50 -5 0 -10 -17 -9 -37z"/>
<path d="M2580 2284 c0 -7 -3 -21 -6 -31 -4 -14 -1 -13 12 5 22 30 32 28 27
-5 -3 -28 -3 -28 7 -4 6 13 9 29 7 34 -5 15 -47 16 -47 1z"/>
<path d="M2653 2288 c-6 -7 -11 -20 -11 -28 -1 -8 -2 -24 -4 -35 -4 -23 28
-33 46 -15 8 8 7 15 -7 24 -14 11 -15 15 -4 19 8 3 17 15 20 26 4 16 0 21 -13
21 -10 0 -22 -6 -27 -12z m27 -7 c0 -6 -4 -13 -10 -16 -5 -3 -10 1 -10 9 0 9
5 16 10 16 6 0 10 -4 10 -9z m-5 -61 c-3 -5 -13 -10 -21 -10 -8 0 -12 5 -9 10
3 6 13 10 21 10 8 0 12 -4 9 -10z"/>
<path d="M2836 2278 c-18 -26 -4 -51 22 -40 15 6 15 7 -1 10 -18 4 -17 5 2 19
12 8 19 19 16 24 -10 15 -23 11 -39 -13z m24 2 c0 -5 -5 -10 -11 -10 -5 0 -7
5 -4 10 3 6 8 10 11 10 2 0 4 -4 4 -10z"/>
<path d="M2889 2279 c-5 -11 -9 -25 -7 -31 5 -15 48 -18 48 -4 0 6 3 20 6 31
7 28 -32 31 -47 4z m28 -14 c-4 -8 -11 -15 -17 -15 -7 0 -7 6 0 21 13 23 26
19 17 -6z"/>
<path d="M3173 2267 c-1 -30 0 -31 10 -9 13 27 31 29 24 2 -3 -11 -1 -23 4
-26 5 -3 10 4 11 15 0 12 1 26 2 32 1 7 -11 13 -25 15 -23 2 -26 -1 -26 -29z"/>
<path d="M3338 2274 c-10 -21 -9 -27 3 -34 19 -12 54 22 46 44 -10 24 -36 19
-49 -10z m28 -21 c-11 -11 -19 6 -11 24 8 17 8 17 12 0 3 -10 2 -21 -1 -24z"/>
<path d="M3400 2268 c0 -28 4 -33 23 -33 21 0 24 5 25 35 0 35 0 35 -10 8 -12
-35 -32 -37 -24 -3 4 14 2 25 -4 25 -5 0 -10 -15 -10 -32z"/>
<path d="M3468 2268 c-3 -15 -1 -28 4 -28 4 0 8 7 8 15 0 9 7 18 15 21 21 8
19 20 -4 20 -14 0 -21 -9 -23 -28z"/>
<path d="M3652 2288 c-7 -7 -12 -22 -12 -34 0 -17 5 -22 25 -20 21 1 25 6 25
34 0 33 -16 42 -38 20z m22 -22 c-6 -16 -24 -23 -24 -8 0 10 22 33 27 28 2 -2
1 -11 -3 -20z"/>
<path d="M3711 2266 c0 -28 1 -29 9 -8 11 27 34 30 25 3 -3 -11 -1 -22 5 -26
6 -4 10 7 10 28 0 30 -3 35 -25 35 -21 0 -25 -5 -24 -32z"/>
<path d="M3853 2284 c-3 -9 0 -20 8 -25 13 -8 5 -13 -14 -10 -5 1 -6 -3 -2 -8
8 -14 35 -2 35 15 0 8 -4 14 -10 14 -5 0 -10 4 -10 10 0 5 7 6 17 3 11 -4 14
-3 9 5 -10 17 -26 15 -33 -4z"/>
<path d="M2125 2270 c-4 -12 -11 -17 -18 -14 -7 4 -8 3 -4 -1 15 -18 32 -12
33 11 2 29 -3 31 -11 4z"/>
<path d="M2069 2213 c-12 -16 -12 -17 2 -6 9 7 20 9 24 5 5 -4 5 -1 1 6 -9 16
-11 15 -27 -5z"/>
<path d="M2126 2163 c-6 -14 -5 -15 5 -6 7 7 10 15 7 18 -3 3 -9 -2 -12 -12z"/>
</g>
</svg>
